<svg version="1.1" id="Layer_1" xmlns="http://www.w3.org/2000/svg" xmlns:xlink="http://www.w3.org/1999/xlink" x="0px" y="0px"
	 width="100%" viewBox="0 0 256 256" enable-background="new 0 0 256 256" xml:space="preserve">

<path fill="#000000" opacity="1.000000" stroke="none"
	d="
M257.000000,94.000000
	C257.000000,147.333328 256.957855,200.166779 257.097351,252.999741
	C257.106384,256.424927 256.424194,257.101074 252.999863,257.095978
	C170.333374,256.972839 87.666626,256.972870 5.000143,257.096008
	C1.575816,257.101105 0.898909,256.424194 0.904010,252.999863
	C1.027149,170.333374 1.027149,87.666626 0.904009,5.000143
	C0.898909,1.575816 1.575816,0.898908 5.000143,0.904009
	C87.666626,1.027151 170.333374,1.027151 252.999863,0.904009
	C256.424194,0.898908 257.120087,1.573041 257.099884,5.000589
	C256.926056,34.499565 257.000000,64.000000 257.000000,94.000000
z"/>
<path fill="#BC9D4B" opacity="1.000000" stroke="none"
	d="
M9.308639,134.493591
	C13.330457,128.270554 17.082216,122.324173 21.046442,116.522980
	C22.280514,114.717041 21.920795,113.339600 21.279163,111.494263
	C19.034046,105.037285 17.026911,98.497116 14.956969,91.979782
	C12.365610,83.820732 13.333593,81.617264 20.638418,77.718513
	C26.114777,74.795654 31.291061,71.257278 36.916824,68.683372
	C42.031242,66.343414 40.961044,61.660378 41.896351,57.848797
	C43.290936,52.165562 43.867516,46.287128 45.027378,40.539219
	C46.188965,34.782745 48.220184,33.147701 54.116543,33.031406
	C61.386154,32.888035 68.647469,33.173485 75.910751,32.145184
	C78.347466,31.800205 79.952484,30.919506 81.271263,29.189465
	C85.539467,23.590223 89.777901,17.966951 93.939667,12.288343
	C97.197037,7.843753 100.907478,6.699246 105.810173,8.968732
	C112.490082,12.060901 119.195389,15.109820 125.758141,18.436989
	C127.996582,19.571831 129.681168,19.795347 132.010544,18.596231
	C138.553940,15.227829 145.257401,12.168320 151.919373,9.032969
	C157.030457,6.627532 160.748474,7.771055 164.178528,12.461236
	C168.328354,18.135599 172.582367,23.734562 176.841629,29.327822
	C180.158386,33.683353 185.319061,32.101788 189.617905,32.834160
	C194.150574,33.606373 198.917831,32.944103 203.580643,33.023846
	C209.791763,33.130066 211.747620,34.601913 212.980042,40.736496
	C214.487350,48.239399 215.806671,55.787834 216.901825,63.360752
	C217.205963,65.463837 217.968307,66.440369 219.760437,67.427498
	C225.905838,70.812492 231.835526,74.589722 237.987503,77.961960
	C243.619110,81.048973 245.440598,84.810356 243.516312,90.955925
	C241.378113,97.784691 239.259583,104.629303 236.775986,111.334969
	C235.914474,113.661003 236.032013,115.130608 237.467834,117.170753
	C241.313110,122.634392 244.804947,128.346909 248.432327,133.963699
	C252.421707,140.141006 252.048752,143.429199 246.760117,148.727478
	C243.229782,152.264252 240.036102,156.248672 236.086075,159.230362
	C229.087250,164.513489 229.077408,171.196167 230.700256,178.704117
	C231.705933,183.356689 231.110016,188.183472 231.652374,192.947937
	C232.078278,196.689453 228.896423,199.787994 224.845123,200.922745
	C217.492874,202.982040 210.157013,205.119812 202.737640,206.906387
	C200.690704,207.399277 200.062256,208.674667 199.430710,210.129318
	C196.443848,217.008957 193.640472,223.969543 190.579742,230.815460
	C188.120392,236.316254 184.424942,238.136230 178.794037,236.866577
	C171.964600,235.326675 165.143585,233.744370 158.346130,232.069962
	C155.150894,231.282883 152.920212,233.120895 150.809479,234.802216
	C146.045898,238.596634 141.461639,242.620285 136.873001,246.629166
	C131.193054,251.591461 126.131042,251.145355 120.792389,246.327621
	C116.277954,242.253693 111.444191,238.530945 106.972458,234.413101
	C102.996223,230.751480 98.693184,232.484955 94.509018,233.280090
	C89.230576,234.283173 84.054245,235.813263 78.789749,236.902832
	C73.367188,238.025131 70.094284,236.349228 67.706718,231.226059
	C65.363907,226.198898 62.569504,221.235168 61.225777,215.926559
	C59.533627,209.241470 55.214935,206.512894 49.214619,205.054337
	C43.842113,203.748383 38.490936,202.347748 33.158085,200.887573
	C27.995916,199.474136 25.959208,194.997574 26.621195,189.580368
	C27.520561,182.220642 27.530361,174.754990 28.036825,167.342621
	C28.174135,165.333023 26.865841,164.351608 25.724596,163.203842
	C20.909946,158.361618 16.062614,153.551941 11.235434,148.722168
	C6.053418,143.537338 5.726646,141.358582 9.308639,134.493591
z"/>
<path fill="#FFEDA3" opacity="1.000000" stroke="none"
	d="
M118.095100,238.910095
	C109.394218,228.357513 99.190346,227.458755 86.779793,230.926483
	C70.786880,235.395187 72.541595,235.181000 67.726273,220.823212
	C63.468491,208.127808 56.079189,202.063293 43.207829,199.386108
	C27.978897,196.218567 29.539890,196.794601 30.927326,182.843811
	C31.042551,181.685196 30.806688,180.443222 31.134916,179.361664
	C34.768295,167.389191 29.123041,159.706772 20.389015,152.120178
	C7.604888,141.015564 7.634342,143.021805 17.577667,129.493057
	C25.125605,119.223442 26.072727,110.178429 21.289490,98.466003
	C15.048214,83.183372 13.945902,84.982918 29.120064,77.602654
	C40.724560,71.958565 45.972286,64.282524 47.077862,51.504333
	C48.544891,34.548500 48.027657,37.420082 62.956181,36.671001
	C64.619026,36.587563 66.335571,36.074177 67.928627,36.343441
	C78.287491,38.094341 84.789993,33.190716 89.580765,24.569914
	C91.504250,21.108690 94.400597,18.201466 96.677879,14.919767
	C98.987732,11.591141 101.732216,11.025151 105.305267,12.763645
	C111.892426,15.968673 118.633316,18.868692 125.132690,22.238121
	C128.001907,23.725597 130.292130,23.560770 133.057220,22.160807
	C139.442780,18.927792 146.008392,16.052055 152.420700,12.869617
	C156.177368,11.005177 158.977234,11.592063 161.461990,15.068979
	C165.528183,20.758829 169.996826,26.166336 173.946121,31.932375
	C176.083755,35.053387 178.576492,36.120354 182.270218,36.122902
	C189.258011,36.127724 196.243134,36.784851 203.233917,36.903805
	C207.341400,36.973694 209.307205,38.911449 209.887512,42.792233
	C210.946030,49.870903 212.158615,56.927059 213.164703,64.012802
	C213.617065,67.198692 214.896759,69.390198 217.917938,70.985291
	C224.392715,74.403786 230.614426,78.298080 236.999680,81.891075
	C240.295197,83.745468 241.265106,86.180779 239.980362,89.796928
	C237.584030,96.541817 235.526215,103.408859 233.049393,110.122459
	C231.842468,113.393913 232.065857,116.050781 234.053391,118.974228
	C237.983856,124.755569 241.484192,130.828156 245.371216,136.640656
	C247.862961,140.366730 247.416382,143.276703 244.132614,146.265182
	C238.837418,151.084259 233.813324,156.200363 228.549576,161.055313
	C226.540497,162.908371 225.640228,164.879028 225.904922,167.634399
	C226.541580,174.261932 226.872391,180.919235 227.532059,187.544052
	C228.288040,195.136078 227.901779,195.840652 220.380508,198.033936
	C213.987518,199.898209 207.624863,201.879669 201.183350,203.558121
	C198.466278,204.266113 196.954025,205.718643 195.926514,208.257568
	C193.178604,215.047470 190.079224,221.697418 187.419846,228.520050
	C185.845856,232.558121 183.250107,233.760239 179.217239,232.899292
	C172.380066,231.439636 165.460861,230.318222 158.694580,228.590744
	C155.000900,227.647705 152.377106,228.503494 149.634338,230.909836
	C144.754211,235.191360 139.478104,239.025162 134.646729,243.357483
	C130.665771,246.927216 127.172523,247.121704 123.384048,243.256577
	C121.878052,241.720123 120.052841,240.496552 118.095100,238.910095
z"/>
<path fill="#C94846" opacity="1.000000" stroke="none"
	d="
M198.255768,137.355377
	C197.226700,141.120605 196.121887,144.455322 195.438828,147.874313
	C194.746475,151.339844 193.646393,153.249191 189.388641,153.285187
	C184.993988,153.322342 184.232895,151.052841 183.379593,147.773682
	C180.844193,138.030502 178.112564,128.338379 174.338974,118.649208
	C171.624039,128.492325 168.786209,138.304092 166.263687,148.196259
	C165.428146,151.472794 164.511261,153.287537 160.486038,153.268753
	C156.492828,153.250122 155.053360,151.779358 154.110565,148.193039
	C150.767853,135.477570 147.082275,122.852448 143.694901,110.148224
	C143.264832,108.535210 140.767441,105.769394 144.325195,105.105354
	C147.197144,104.569321 150.892090,103.459656 151.992020,108.639763
	C154.168808,118.891251 156.895279,129.026184 159.409607,139.205566
	C159.646072,140.162918 159.989975,141.093765 160.589493,143.016937
	C163.892075,131.271332 167.003693,120.441353 169.951187,109.566895
	C170.753784,106.605789 171.572647,104.739639 175.413345,104.730690
	C179.277359,104.721672 180.122421,106.568726 180.865234,109.578392
	C183.491470,120.219093 186.271194,130.821915 189.957016,141.469681
	C192.591934,130.737488 195.459122,120.054337 197.740845,109.247574
	C198.585236,105.248360 200.578079,104.707161 203.956390,104.847107
	C206.470154,104.951241 207.059082,105.555077 206.329361,108.081352
	C203.558289,117.674576 201.001785,127.329788 198.255768,137.355377
z"/>
<path fill="#C94A47" opacity="1.000000" stroke="none"
	d="
M58.650291,124.248611
	C58.649048,132.865250 58.551483,141.019226 58.695126,149.168945
	C58.748638,152.204926 57.676594,153.132324 54.653057,153.194489
	C51.364670,153.262085 50.813850,151.860321 50.836777,149.032181
	C50.939270,136.388657 50.802212,123.742874 50.957500,111.100441
	C50.982437,109.070107 49.403576,105.730537 52.561958,105.170212
	C56.060013,104.549614 59.851940,103.780678 62.519543,108.287956
	C68.275047,118.012665 74.646408,127.373085 80.777290,136.875137
	C81.487900,137.976486 82.271194,139.030914 83.986115,140.031006
	C83.986115,135.028122 83.985031,130.025238 83.986397,125.022354
	C83.987938,119.365677 84.111465,113.705460 83.944771,108.053780
	C83.859230,105.153587 85.350769,104.827820 87.648331,104.876076
	C89.944031,104.924278 91.895462,104.796173 91.868782,108.123810
	C91.758080,121.931847 91.835716,135.741318 91.809296,149.550217
	C91.806580,150.968582 92.169891,152.956375 89.969452,152.955414
	C86.845924,152.954025 83.478806,154.275955 81.104774,150.429855
	C75.428474,141.233810 69.407272,132.250565 63.518749,123.185684
	C62.347157,121.382095 61.146267,119.597527 59.718826,117.441620
	C57.912590,119.618454 58.935726,121.824081 58.650291,124.248611
z"/>
<path fill="#C94946" opacity="1.000000" stroke="none"
	d="
M123.920067,125.226303
	C126.972389,126.174797 131.637772,122.714249 131.802078,128.809326
	C131.864487,131.124542 131.059631,132.149216 128.653564,132.072098
	C125.162506,131.960175 121.664772,132.059692 118.169884,132.063156
	C116.593819,132.064713 115.099442,132.132339 115.113136,134.317261
	C115.132957,137.478790 115.128632,140.640579 115.111649,143.802155
	C115.098167,146.312119 116.907066,146.192215 118.580002,146.205505
	C122.407547,146.235916 126.236610,146.284363 130.062744,146.208725
	C132.481659,146.160904 134.178101,146.400742 134.198715,149.592667
	C134.218277,152.620758 132.901703,153.178589 130.291443,153.129822
	C123.803139,153.008606 117.306213,152.940353 110.822540,153.151413
	C107.576935,153.257065 106.973938,151.859528 106.997223,149.005417
	C107.105835,135.692307 107.138542,122.376717 106.979149,109.064636
	C106.939682,105.767891 108.013084,104.731255 111.252312,104.847992
	C117.235840,105.063637 123.234222,104.989388 129.223236,104.872749
	C131.793686,104.822685 133.176086,105.297478 133.154190,108.372574
	C133.131683,111.532730 131.526413,111.856522 129.068985,111.793694
	C125.576508,111.704391 122.077202,111.865250 118.585777,111.758003
	C116.094193,111.681473 114.780701,112.531837 115.078819,115.190872
	C115.134071,115.683647 115.071983,116.188637 115.080650,116.687714
	C115.252586,126.591324 113.722824,125.035843 123.920067,125.226303
z"/>
</svg>
